<svg xmlns="http://www.w3.org/2000/svg" width="81.107" height="65.805" viewBox="0 0 81.107 65.805">
  <g id="Group_1870" data-name="Group 1870" transform="translate(0 0.5)">
    <path id="Union_40" data-name="Union 40" d="M24.93,64.25a2.473,2.473,0,1,1,0-4.947h7.011a2.207,2.207,0,0,0,2.473-2.473A2.473,2.473,0,0,0,32.408,54.4c-7.005-.019-13.092-.044-13.66-.044H5.994a2.473,2.473,0,0,1,0-4.946H23.666a2.473,2.473,0,0,0,.26-4.932h-6.77a2.365,2.365,0,0,1-.26-.014H15.158a2.473,2.473,0,1,1,0-4.946H24.42a2.473,2.473,0,0,0-.258-4.932H20.933c-.026,0-.05,0-.076,0H6.253a2.472,2.472,0,1,1,0-4.944H17.041a2.473,2.473,0,0,0,0-4.946H2.473a2.474,2.474,0,0,1,0-4.949H21.959a2.473,2.473,0,0,0,.466-4.9h-3.2a2.508,2.508,0,0,1-.466-.045H17.23a2.473,2.473,0,1,1,0-4.946c6.432,0,13.57.009,21.253.019a2.473,2.473,0,0,0-.348-4.921H31.127a2.473,2.473,0,0,1,0-4.946H51.788a2.473,2.473,0,0,1,0,4.946H48.557A2.473,2.473,0,0,0,48.3,9.879c6.726.008,13.779.014,21.068.014a2.473,2.473,0,1,1,0,4.946H49.885a2.473,2.473,0,0,0-.466,4.9H63.957a2.508,2.508,0,0,1,.466.045h1.53a2.473,2.473,0,0,1,0,4.946H56.178a2.473,2.473,0,0,0,.463,4.9h3.533c.026,0,.05,0,.076,0H78.634a2.473,2.473,0,1,1,0,4.946H64.067a2.473,2.473,0,1,0,0,4.946H74.855a2.473,2.473,0,1,1,0,4.947H59.148a2.473,2.473,0,0,0-.26,4.932H61.88a2.362,2.362,0,0,1,.26.014h1.738a2.473,2.473,0,1,1,0,4.946H54.613c-.3.031-2.469.046-5.6.051a2.473,2.473,0,0,0,.564,4.881h7.358a2.473,2.473,0,0,1,0,4.947Z" transform="translate(81.108 65.305) rotate(180)" fill="#e3dffc"/>
    <path id="Union_98" data-name="Union 98" d="M19.569,59.62v-.491l-.321-7.545h.337v-.491l.01-4.642q-.373.034-.754.033l-2.1,0c-.254,0-.506-.014-.753-.037l-.01,4.642v.491l-4.891-.009,5.227.011-.291,6.211h0l-.063,1.331v.492l-6.6-.014,0-.492h0s-.852-3.143,1.288-2.911l-.232-4.63h.392l0-.491.013-6.332a2.057,2.057,0,0,1-.721-1.727,8.1,8.1,0,0,1-1.472-4.684l0-1.368L6.5,40.09l-4.4-2.713,3.234-5.862.493.3a1.207,1.207,0,0,1,.592-.812l3.65-3.847a.826.826,0,0,1,.8-.556l2.407,0q.221-.105.448-.2a9.365,9.365,0,0,1-4.315-4.322,9.5,9.5,0,0,1-.6-1.579l-1.678,0a.315.315,0,0,1-.32-.336l.228-3.806a.283.283,0,0,1,.3-.238l1.306,0a9.616,9.616,0,0,1,.331-1.219,9.4,9.4,0,0,1,18.118,1.306c0-.018,0-.036,0-.055l1.346,0a.339.339,0,0,1,.11.019.259.259,0,0,1,.186.22l.212,3.807a.315.315,0,0,1-.321.335l-1.726,0c-.047.164-.1.326-.154.488a9.364,9.364,0,0,1-4.765,5.386l-.025.013q.228.093.449.2l2.407.005,0,1.761,0,0,0-1.763.307,2.116-.307-2.117,5.422-.81-.161-.335,6.164-2.611,1.289,2.676v0l-1.331-2.763.19-.091.067.139h0l-.024-.05.025-.012.019-1.457a.857.857,0,0,1,.795-.826.746.746,0,0,1,.259.05V0h1.17V2.169a13.608,13.608,0,0,0,5.191.956,36.321,36.321,0,0,0,7.09-.956h0a36.348,36.348,0,0,1,7.093-.956,13.616,13.616,0,0,1,5.192.956v16.55a13.608,13.608,0,0,0-5.191-.955,36.338,36.338,0,0,0-7.092.955,36.263,36.263,0,0,1-7.092.957,13.6,13.6,0,0,1-5.192-.957v2.974l.789-.381a2.112,2.112,0,0,1,2.82.986,3.057,3.057,0,0,1-1.427,4.081L38.689,27.43v.063l.018.037-.018.009V59.121h-1.17V28.052l-4.928,2.675-.093-.178a1.427,1.427,0,0,1-.888.319l-4.962.72A8.131,8.131,0,0,1,27,33.971l-.009,4.4A8.092,8.092,0,0,1,25.5,43.047a2.056,2.056,0,0,1-.728,1.724L24.755,51.1h-.523l-4.647-.009,5.17.011V51.6l-1.286,0,1.679,0-.25,4.628c2.139-.221,1.274,2.918,1.274,2.918L20.5,59.13l-.927,0,6.6.014v.491ZM8.652,33.564l-.6-.368Zm23.707-3.318-.316-.656ZM14.591,12.321A7.253,7.253,0,0,0,12.1,13.73a6.16,6.16,0,0,0-1.58,2.153,6.75,6.75,0,0,0-.557,2.732,5.762,5.762,0,0,0,4.2,5.743,11.36,11.36,0,0,0,3.67.559,11.783,11.783,0,0,0,3.275-.418A7.25,7.25,0,0,0,23.6,23.271a5.41,5.41,0,0,0,1.58-1.971,6.233,6.233,0,0,0,.557-2.65,6.986,6.986,0,0,0-.308-2.1,6.205,6.205,0,0,0-.9-1.8,6.364,6.364,0,0,0-1.444-1.428,7.468,7.468,0,0,0-1.939-.99,10.12,10.12,0,0,0-3.279-.517h-.019A10.147,10.147,0,0,0,14.591,12.321Zm38.1-.113a1.484,1.484,0,0,0,0,2.032,1.437,1.437,0,0,0,1.023.4,1.242,1.242,0,0,0,1.065-.491l-.464-.429a.678.678,0,0,1-.568.29.7.7,0,0,1-.525-.217.81.81,0,0,1-.2-.568.8.8,0,0,1,.2-.565.7.7,0,0,1,.525-.215.663.663,0,0,1,.568.29l.464-.428a1.24,1.24,0,0,0-1.065-.49A1.44,1.44,0,0,0,52.695,12.208Zm-3.118.872a.8.8,0,0,0-.307.665.836.836,0,0,0,.307.671,1.006,1.006,0,0,0,.628.22,1.113,1.113,0,0,0,.852-.346v.279h.707V12.832a.929.929,0,0,0-.357-.8,1.373,1.373,0,0,0-.817-.219,1.767,1.767,0,0,0-1.174.423l.266.473a1.126,1.126,0,0,1,.785-.319.7.7,0,0,1,.429.123.4.4,0,0,1,.162.328v.373a1.088,1.088,0,0,0-.852-.328A1.046,1.046,0,0,0,49.577,13.081ZM47.255,12.5H47.7v1.4a.727.727,0,0,0,.2.548.788.788,0,0,0,.567.188.9.9,0,0,0,.591-.173l-.151-.535a.389.389,0,0,1-.245.077c-.147,0-.246-.118-.246-.294V12.5h.546v-.618h-.546v-.734H47.7v.734h-.445Zm-3.213,1.548a2.142,2.142,0,0,0,1.576.591,1.691,1.691,0,0,0,1.12-.341,1.087,1.087,0,0,0,.367-.851.909.909,0,0,0-.466-.83,3.126,3.126,0,0,0-.925-.317,2.776,2.776,0,0,1-.532-.158c-.143-.068-.21-.155-.21-.271,0-.233.209-.378.545-.378a1.582,1.582,0,0,1,1.065.406l.44-.58a2.064,2.064,0,0,0-1.449-.517,1.581,1.581,0,0,0-1.031.329,1.017,1.017,0,0,0-.377.791c0,.818.755.991,1.361,1.13l.026.005c.441.1.752.2.752.473a.355.355,0,0,1-.16.288.824.824,0,0,1-.487.13,1.627,1.627,0,0,1-1.18-.5Zm12.945.525h.886l-1.1-1.472,1.065-1.22H56.97l-1.019,1.2V10.855h-.707V14.57h.707v-.691l.323-.346ZM44.021,8.062a1.867,1.867,0,0,0,1.938,1.922,1.964,1.964,0,0,0,1.394-.541,2.008,2.008,0,0,0,0-2.761,1.96,1.96,0,0,0-1.394-.541A1.866,1.866,0,0,0,44.021,8.062ZM56.408,9.917h.707V7.227h-.707ZM54.866,7.9A.5.5,0,0,1,55,8.291V9.917h.707v-1.9a.781.781,0,0,0-.874-.858,1.23,1.23,0,0,0-.941.418V7.227h-.707v2.69h.707V8.107A.77.77,0,0,1,54.5,7.79.514.514,0,0,1,54.866,7.9Zm-3.088.319v1.7h.713V7.973A.718.718,0,0,0,51.7,7.16a1.14,1.14,0,0,0-.923.49.711.711,0,0,0-.747-.49,1.178,1.178,0,0,0-.88.418V7.227h-.707v2.69h.707V8.107a.728.728,0,0,1,.558-.318c.262,0,.4.148.4.429v1.7h.713V8.1a.715.715,0,0,1,.558-.311C51.709,7.79,51.778,8.023,51.778,8.219Zm4.559-1.811a.427.427,0,0,0,.423.424.423.423,0,0,0,0-.847A.428.428,0,0,0,56.336,6.408ZM38.689,59.121h0ZM2.078,44.083l-.932-.574a2.41,2.41,0,0,1-.787-3.316l1.625-2.636L1.9,37.506l.111-.18,4.568,2.816-.111.179L5.621,39.8l.764.471-.013.02.318,2a.758.758,0,1,1-1.5.238l-.04-.256-.783,1.27a1.662,1.662,0,0,1-2.29.544Zm2.993-4.622h0l-1.73-1.066Zm6.674-23.022c-.465-.44,0-1.39,1.016-2.294a4.027,4.027,0,0,1,2.96-1.088.457.457,0,0,1,.308.294c.265.822-1.388,1.262-2.068,1.681-.953.586-1.409,1.56-1.891,1.56A.472.472,0,0,1,11.746,16.438Zm38.386-2.385a.348.348,0,0,1-.148-.291c0-.24.208-.408.506-.408a.706.706,0,0,1,.569.234v.334a.7.7,0,0,1-.569.234A.608.608,0,0,1,50.132,14.054ZM45.14,8.931a1.388,1.388,0,0,1,0-1.739,1.062,1.062,0,0,1,.818-.349,1.127,1.127,0,0,1,1.131,1.22,1.286,1.286,0,0,1-.309.868,1.074,1.074,0,0,1-.823.351A1.062,1.062,0,0,1,45.14,8.931Z" transform="translate(16.737)" fill="#7159c1" stroke="rgba(0,0,0,0)" stroke-width="1"/>
  </g>
</svg>
