<?xml version="1.0" encoding="UTF-8"?>
<svg width="18px" height="18px" viewBox="0 0 18 18" version="1.1" xmlns="http://www.w3.org/2000/svg" xmlns:xlink="http://www.w3.org/1999/xlink">
    <!-- Generator: Sketch 50.2 (55047) - http://www.bohemiancoding.com/sketch -->
    <title>instagram - FontAwesome</title>
    <desc>Created with Sketch.</desc>
    <defs></defs>
    <g id="Home" stroke="none" stroke-width="1" fill="none" fill-rule="evenodd">
        <g transform="translate(-1129.000000, -31.000000)" fill="#FFFFFF" id="Group-3">
            <g transform="translate(1097.000000, 30.000000)">
                <path d="M43.4285851,9.85713434 C43.4285851,8.28347175 42.1451014,6.99998808 40.5714388,6.99998808 C38.9977762,6.99998808 37.7142925,8.28347175 37.7142925,9.85713434 C37.7142925,11.4307969 38.9977762,12.7142806 40.5714388,12.7142806 C42.1451014,12.7142806 43.4285851,11.4307969 43.4285851,9.85713434 Z M44.9687655,9.85713434 C44.9687655,12.290173 43.0044774,14.254461 40.5714388,14.254461 C38.1384002,14.254461 36.1741121,12.290173 36.1741121,9.85713434 C36.1741121,7.42409573 38.1384002,5.45980767 40.5714388,5.45980767 C43.0044774,5.45980767 44.9687655,7.42409573 44.9687655,9.85713434 Z M46.174124,5.28123603 C46.174124,5.85043314 45.7165342,6.30802297 45.1473371,6.30802297 C44.57814,6.30802297 44.1205502,5.85043314 44.1205502,5.28123603 C44.1205502,4.71203892 44.57814,4.25444909 45.1473371,4.25444909 C45.7165342,4.25444909 46.174124,4.71203892 46.174124,5.28123603 Z M40.5714388,2.82587596 C39.3214373,2.82587596 36.6428627,2.72542941 35.5156292,3.17185852 C35.1250037,3.3281087 34.8348248,3.51784107 34.5334852,3.81918072 C34.2321455,4.12052036 34.0424131,4.41069928 33.886163,4.80132474 C33.4397339,5.92855823 33.5401804,8.60713285 33.5401804,9.85713434 C33.5401804,11.1071358 33.4397339,13.7857105 33.886163,14.9129439 C34.0424131,15.3035694 34.2321455,15.5937483 34.5334852,15.895088 C34.8348248,16.1964276 35.1250037,16.38616 35.5156292,16.5424102 C36.6428627,16.9888393 39.3214373,16.8883927 40.5714388,16.8883927 C41.8214403,16.8883927 44.5000149,16.9888393 45.6272484,16.5424102 C46.0178739,16.38616 46.3080528,16.1964276 46.6093924,15.895088 C46.9107321,15.5937483 47.1004644,15.3035694 47.2567146,14.9129439 C47.7031437,13.7857105 47.6026972,11.1071358 47.6026972,9.85713434 C47.6026972,8.60713285 47.7031437,5.92855823 47.2567146,4.80132474 C47.1004644,4.41069928 46.9107321,4.12052036 46.6093924,3.81918072 C46.3080528,3.51784107 46.0178739,3.3281087 45.6272484,3.17185852 C44.5000149,2.72542941 41.8214403,2.82587596 40.5714388,2.82587596 Z M49.1428776,9.85713434 C49.1428776,11.0401715 49.1540383,12.2120479 49.0870739,13.395085 C49.0201096,14.7678545 48.7076092,15.9843738 47.7031437,16.9888393 C46.6986782,17.9933048 45.4821589,18.3058051 44.1093894,18.3727695 C42.9263523,18.4397339 41.7544759,18.4285731 40.5714388,18.4285731 C39.3884017,18.4285731 38.2165253,18.4397339 37.0334881,18.3727695 C35.6607186,18.3058051 34.4441993,17.9933048 33.4397339,16.9888393 C32.4352684,15.9843738 32.122768,14.7678545 32.0558036,13.395085 C31.9888393,12.2120479 32,11.0401715 32,9.85713434 C32,8.67409722 31.9888393,7.50222082 32.0558036,6.3191837 C32.122768,4.9464142 32.4352684,3.7298949 33.4397339,2.72542941 C34.4441993,1.72096393 35.6607186,1.40846356 37.0334881,1.34149919 C38.2165253,1.27453483 39.3884017,1.28569555 40.5714388,1.28569555 C41.7544759,1.28569555 42.9263523,1.27453483 44.1093894,1.34149919 C45.4821589,1.40846356 46.6986782,1.72096393 47.7031437,2.72542941 C48.7076092,3.7298949 49.0201096,4.9464142 49.0870739,6.3191837 C49.1540383,7.50222082 49.1428776,8.67409722 49.1428776,9.85713434 Z" id="instagram---FontAwesome"></path>
            </g>
        </g>
    </g>
</svg>