<svg xmlns="http://www.w3.org/2000/svg" width="81.107" height="64.25" viewBox="0 0 81.107 64.25">
  <g id="Group_2185" data-name="Group 2185" transform="translate(0)">
    <g id="Group_2183" data-name="Group 2183" transform="translate(0 0)">
      <path id="Union_40" data-name="Union 40" d="M24.93,64.25a2.473,2.473,0,1,1,0-4.947h7.011a2.207,2.207,0,0,0,2.473-2.473A2.473,2.473,0,0,0,32.408,54.4c-7.005-.019-13.092-.044-13.66-.044H5.994a2.473,2.473,0,0,1,0-4.946H23.666a2.473,2.473,0,0,0,.26-4.932h-6.77a2.365,2.365,0,0,1-.26-.014H15.158a2.473,2.473,0,1,1,0-4.946H24.42a2.473,2.473,0,0,0-.258-4.932H20.933c-.026,0-.05,0-.076,0H6.253a2.472,2.472,0,1,1,0-4.944H17.041a2.473,2.473,0,0,0,0-4.946H2.473a2.474,2.474,0,0,1,0-4.949H21.959a2.473,2.473,0,0,0,.466-4.9h-3.2a2.508,2.508,0,0,1-.466-.045H17.23a2.473,2.473,0,1,1,0-4.946c6.432,0,13.57.009,21.253.019a2.473,2.473,0,0,0-.348-4.921H31.127a2.473,2.473,0,0,1,0-4.946H51.788a2.473,2.473,0,0,1,0,4.946H48.557A2.473,2.473,0,0,0,48.3,9.879c6.726.008,13.779.014,21.068.014a2.473,2.473,0,1,1,0,4.946H49.885a2.473,2.473,0,0,0-.466,4.9H63.957a2.508,2.508,0,0,1,.466.045h1.53a2.473,2.473,0,0,1,0,4.946H56.178a2.473,2.473,0,0,0,.463,4.9h3.533c.026,0,.05,0,.076,0H78.634a2.473,2.473,0,1,1,0,4.946H64.067a2.473,2.473,0,1,0,0,4.946H74.855a2.473,2.473,0,1,1,0,4.947H59.148a2.473,2.473,0,0,0-.26,4.932H61.88a2.362,2.362,0,0,1,.26.014h1.738a2.473,2.473,0,1,1,0,4.946H54.613c-.3.031-2.469.046-5.6.051a2.473,2.473,0,0,0,.564,4.881h7.358a2.473,2.473,0,0,1,0,4.947Z" transform="translate(81.108 64.25) rotate(180)" fill="#e3dffc" opacity="0.75"/>
    </g>
    <path id="Union_93" data-name="Union 93" d="M14.9,59.759c-.037-.1-.931-2.5-1.824-5.134-.53-1.563-.952-2.894-1.254-3.954a12.425,12.425,0,0,1-.57-2.69,3.654,3.654,0,0,1,.394-1.65H10.557V44.943q-.512.13-1.017.29-.343-.694-.659-1.419a15.338,15.338,0,0,0-7.83,8.321h0A15.289,15.289,0,0,1,3.84,36.422,15.434,15.434,0,0,1,6.13,34.308a49.843,49.843,0,0,1,.038-16.291,41.78,41.78,0,0,1,1.937-7.353A25.824,25.824,0,0,1,14.946,0a25.832,25.832,0,0,1,6.839,10.664,41.807,41.807,0,0,1,1.937,7.354,49.1,49.1,0,0,1,.689,8.261,49.016,49.016,0,0,1-.65,8.023,15.39,15.39,0,0,1,4.356,5.086,15.326,15.326,0,0,1,.733,12.747h0a15.248,15.248,0,0,0-1.383-2.706,15.365,15.365,0,0,0-6.454-5.619q-.317.726-.661,1.422h0q-.506-.161-1.02-.291v1.388H18.152a3.654,3.654,0,0,1,.394,1.65,12.427,12.427,0,0,1-.57,2.69c-.3,1.06-.724,2.39-1.254,3.954-.892,2.633-1.786,5.033-1.824,5.134h0Zm-3.648-38.8a3.7,3.7,0,1,0,3.7-3.7A3.7,3.7,0,0,0,11.249,20.958Z" transform="translate(25.57 2.31)" fill="#7159c1"/>
  </g>
</svg>
