<svg id="Group_1465" data-name="Group 1465" xmlns="http://www.w3.org/2000/svg" width="154.393" height="37.448" viewBox="0 0 154.393 37.448">
  <g id="Group_17" data-name="Group 17" transform="translate(0 0)">
    <g id="nodejs-icon" transform="translate(0 0)">
      <path id="Shape" d="M15.824.4a3.281,3.281,0,0,1,3.138,0Q26.13,4.356,33.3,8.309a2.872,2.872,0,0,1,1.49,2.483V26.659a2.907,2.907,0,0,1-1.6,2.537Q26.043,33.13,18.9,37.067a3.187,3.187,0,0,1-3.173-.086q-2.142-1.213-4.286-2.421a2.522,2.522,0,0,1-.827-.582c.182-.24.508-.27.772-.374a10.114,10.114,0,0,0,1.691-.771.4.4,0,0,1,.44.026c1.221.684,2.431,1.387,3.656,2.065.261.147.526-.048.749-.17q7.01-3.87,14.025-7.731a.451.451,0,0,0,.255-.446q0-7.851,0-15.7a.489.489,0,0,0-.3-.489Q24.789,6.467,17.673,2.546a.5.5,0,0,0-.559,0Q10,6.464,2.882,10.386a.484.484,0,0,0-.3.487q0,7.851,0,15.7a.442.442,0,0,0,.258.441q1.9,1.052,3.8,2.1a3,3,0,0,0,2.377.311,1.763,1.763,0,0,0,1.167-1.655c.007-5.2,0-10.408,0-15.611a.4.4,0,0,1,.437-.4c.608,0,1.218-.008,1.826,0a.414.414,0,0,1,.4.476c0,5.237.007,10.473,0,15.71a3.958,3.958,0,0,1-1.907,3.6A6,6,0,0,1,5.69,31.4C4.3,30.725,2.969,29.923,1.6,29.2A2.9,2.9,0,0,1,0,26.659V10.792A2.879,2.879,0,0,1,1.542,8.277Q8.684,4.34,15.824.4Z" transform="translate(0 0)" fill="#7f66d2"/>
      <path id="Shape-2" data-name="Shape" d="M5.755.052a11.508,11.508,0,0,1,6.169.922A4.536,4.536,0,0,1,14.2,4.917a.437.437,0,0,1-.474.314c-.6,0-1.205.008-1.808,0a.46.46,0,0,1-.436-.441,2.689,2.689,0,0,0-1.316-1.858,7.973,7.973,0,0,0-3.611-.5,5,5,0,0,0-2.585.629A1.578,1.578,0,0,0,3.422,4.84c.194.449.725.594,1.159.728,2.5.639,5.155.576,7.61,1.417a3.555,3.555,0,0,1,2.358,2.049,4.3,4.3,0,0,1-.759,4.177A6.035,6.035,0,0,1,10.573,14.9a15.814,15.814,0,0,1-4.855.2,7.76,7.76,0,0,1-4.271-1.57A4.328,4.328,0,0,1,0,10.083a.4.4,0,0,1,.443-.349c.607,0,1.214-.006,1.82,0a.421.421,0,0,1,.434.411,2.676,2.676,0,0,0,1.026,1.892,7.943,7.943,0,0,0,4.193.746,5.8,5.8,0,0,0,3.438-.821,1.827,1.827,0,0,0,.517-1.772c-.147-.523-.708-.767-1.189-.927-2.471-.763-5.152-.486-7.6-1.35A3.673,3.673,0,0,1,.751,5.925a4,4,0,0,1,.833-4.237A6.806,6.806,0,0,1,5.755.052Z" transform="translate(14.223 11.339)" fill="#7f66d2"/>
    </g>
  </g>
  <g id="git-icon_1_" data-name="git-icon (1)" transform="translate(118.295 0)">
    <path id="Shape-3" data-name="Shape" d="M35.417,16.445,19.656.681a2.324,2.324,0,0,0-3.287,0L13.1,3.955l4.152,4.153a2.761,2.761,0,0,1,3.5,3.52l4,4a2.764,2.764,0,1,1-1.657,1.56l-3.731-3.732V23.28a2.764,2.764,0,0,1,.732,4.437A2.767,2.767,0,1,1,17.082,23.2V13.286a2.732,2.732,0,0,1-.905-.6,2.767,2.767,0,0,1-.6-3.025L11.488,5.563.681,16.372a2.326,2.326,0,0,0,0,3.289L16.442,35.426a2.324,2.324,0,0,0,3.288,0L35.417,19.735a2.327,2.327,0,0,0,0-3.29" transform="translate(0 0)" fill="#7f66d2"/>
  </g>
  <path id="Union_33" data-name="Union 33" d="M18.212,27.77c-.305-.275-.626-.549-.931-.854-.244.229-.473.442-.717.656-3.02,2.639-6.132,3.737-7.978,2.669C6.8,29.219,6.238,26.2,6.956,22.4q.114-.618.275-1.236c-.32-.092-.626-.183-.931-.29C2.5,19.564,0,17.429,0,15.293c0-2.059,2.334-4.057,5.979-5.338.412-.137.839-.275,1.281-.4-.107-.4-.183-.778-.259-1.144C6.238,4.554,6.772,1.473,8.572.436c1.876-1.1,4.988.076,8.115,2.837.183.168.366.351.564.534.29-.274.564-.549.854-.793,2.959-2.578,5.9-3.661,7.7-2.624,1.876,1.067,2.425,4.362,1.586,8.435-.046.26-.107.5-.168.763.381.107.762.229,1.113.351,3.722,1.281,6.132,3.28,6.1,5.385,0,2.151-2.578,4.271-6.529,5.583-.213.061-.427.137-.64.2.092.305.152.61.213.915.793,3.951.183,7.185-1.663,8.253a3.152,3.152,0,0,1-1.607.4C22.523,30.673,20.376,29.63,18.212,27.77Zm2.99-5.6a35.65,35.65,0,0,1-2.883,3.661c.29.29.579.549.869.793,2.517,2.166,4.835,2.974,5.918,2.349a3,3,0,0,0,1.129-2.135,12.361,12.361,0,0,0-.183-4.546c-.046-.275-.107-.549-.183-.839A37.065,37.065,0,0,1,21.2,22.172ZM8.42,22.66c-.625,3.249-.168,5.674.915,6.3a3.017,3.017,0,0,0,2.41-.092,12.376,12.376,0,0,0,3.859-2.41c.229-.183.442-.4.671-.61a37.263,37.263,0,0,1-2.959-3.661,36.259,36.259,0,0,1-4.652-.671C8.572,21.913,8.5,22.294,8.42,22.66ZM17.3,24.8c.671-.747,1.342-1.571,2.013-2.486-.671.03-1.373.046-2.075.046q-1.029,0-2.013-.046A31.945,31.945,0,0,0,17.3,24.8Zm-3.2-14.887c-.579.839-1.144,1.723-1.678,2.654-.534.915-1.022,1.846-1.465,2.776.458.915.946,1.846,1.479,2.792.534.915,1.1,1.815,1.678,2.669,1.007.061,2.059.092,3.127.092,1.083,0,2.136-.03,3.158-.107.549-.839,1.114-1.739,1.647-2.669s1.038-1.876,1.48-2.791c-.442-.9-.946-1.83-1.48-2.761s-1.1-1.815-1.662-2.654c-1.022-.077-2.075-.122-3.143-.122S15.116,9.832,14.094,9.909Zm-5.033,10.2a30.175,30.175,0,0,0,3.172.5c-.366-.58-.732-1.159-1.083-1.77-.336-.595-.671-1.19-.976-1.785A31.027,31.027,0,0,0,9.061,20.113Zm14.261-1.281c-.351.61-.7,1.19-1.053,1.754a31.351,31.351,0,0,0,3.219-.549A30.466,30.466,0,0,0,24.329,17Q23.848,17.916,23.322,18.831ZM6.452,11.358c-3.111,1.1-4.988,2.7-4.988,3.95a3.048,3.048,0,0,0,1.281,2.044,12.865,12.865,0,0,0,4.027,2.135c.275.092.564.168.854.26A37.047,37.047,0,0,1,9.32,15.338a33.7,33.7,0,0,1-1.678-4.347Q7.024,11.151,6.452,11.358Zm18.716,3.95a35.029,35.029,0,0,1,1.739,4.362c.2-.061.4-.122.58-.183,3.4-1.129,5.506-2.852,5.521-4.195,0-1.251-1.952-2.867-5.14-3.966-.32-.107-.671-.213-1.022-.32A35.134,35.134,0,0,1,25.168,15.308ZM23.307,11.8c.35.61.686,1.205.991,1.8a27.511,27.511,0,0,0,1.1-2.974,31.4,31.4,0,0,0-3.142-.549C22.62,10.641,22.971,11.2,23.307,11.8ZM9.076,10.61c.305.976.671,1.968,1.1,2.989.305-.595.64-1.19.976-1.785s.686-1.174,1.053-1.739C11.1,10.214,10.067,10.4,9.076,10.61Zm9.991-6.483c-.259.229-.519.473-.778.717A33.249,33.249,0,0,1,21.2,8.475a34.542,34.542,0,0,1,4.606.732c.061-.229.107-.458.153-.687.717-3.508.274-6.193-.885-6.864a1.688,1.688,0,0,0-.835-.19C23,1.467,21.083,2.376,19.067,4.127ZM9.3,1.7c-1.083.625-1.51,3.127-.869,6.422.076.351.152.7.244,1.067a37.312,37.312,0,0,1,4.607-.717,32.638,32.638,0,0,1,2.929-3.63c-.168-.168-.351-.32-.519-.473-2.125-1.883-4.164-2.878-5.5-2.878A1.77,1.77,0,0,0,9.3,1.7Zm9.976,6.65A28.57,28.57,0,0,0,17.251,5.9c-.686.747-1.373,1.571-2.044,2.455.671-.03,1.342-.046,2.028-.046S18.609,8.322,19.28,8.352Zm-5.125,7.017a3.081,3.081,0,1,1,3.081,3.081A3.073,3.073,0,0,1,14.155,15.369Z" transform="translate(59.147 2.275)" fill="#7f66d2"/>
</svg>
