<svg id="Group_1464" data-name="Group 1464" xmlns="http://www.w3.org/2000/svg" width="151.505" height="36.062" viewBox="0 0 151.505 36.062">
  <g id="graphql" transform="translate(57.631 0)">
    <path id="Shape" d="M15.766,36.062a3.19,3.19,0,0,1-3.157-3.214,3.272,3.272,0,0,1,.128-.909l-7.283-4.28a3.218,3.218,0,0,1-.706.567A3.129,3.129,0,0,1,.431,27.046a3.261,3.261,0,0,1,1.158-4.393,3.175,3.175,0,0,1,.833-.339V13.749a3.134,3.134,0,0,1-.841-.341A3.25,3.25,0,0,1,.422,9.015,3.156,3.156,0,0,1,3.161,7.408a3.113,3.113,0,0,1,1.576.429,3.2,3.2,0,0,1,.713.573l7.287-4.282a3.235,3.235,0,0,1-.129-.914,3.158,3.158,0,1,1,6.315,0,3.262,3.262,0,0,1-.13.919l7.285,4.282a3.187,3.187,0,0,1,.717-.577,3.11,3.11,0,0,1,1.574-.429A3.171,3.171,0,0,1,31.11,9.015a3.262,3.262,0,0,1-1.158,4.392,3.1,3.1,0,0,1-.841.341v8.566a3.166,3.166,0,0,1,.832.339A3.245,3.245,0,0,1,31.1,27.046a3.128,3.128,0,0,1-4.315,1.179A3.119,3.119,0,0,1,26,27.579l-7.241,4.255a3.306,3.306,0,0,1,.16,1.013A3.19,3.19,0,0,1,15.766,36.062Zm0-6.428h.01A3.133,3.133,0,0,1,18.1,30.682l7.255-4.263c-.022-.07-.041-.139-.058-.211H6.233c-.01.044-.021.084-.033.124l7.291,4.285A3.138,3.138,0,0,1,15.761,29.633ZM14.886,6.3,5.349,23.115a3.209,3.209,0,0,1,.555.717,3.243,3.243,0,0,1,.333.848H25.294a3.254,3.254,0,0,1,.333-.848,3.18,3.18,0,0,1,.556-.721L16.648,6.3a3.118,3.118,0,0,1-.882.126h-.007A3.1,3.1,0,0,1,14.886,6.3Zm-1.392-.854h0l-7.3,4.29a3.276,3.276,0,0,1-.3,2.491,3.131,3.131,0,0,1-1.972,1.512v8.577l.124.033L13.585,5.54c-.031-.03-.061-.061-.09-.091Zm4.539,0c-.024.025-.05.052-.085.086l9.538,16.813.02-.006.1-.027V13.742a3.135,3.135,0,0,1-1.972-1.512,3.282,3.282,0,0,1-.3-2.486Z" transform="translate(0 0)" fill="#7f66d2"/>
  </g>
  <g id="Group_18" data-name="Group 18" transform="translate(116.02 6.066)">
    <path id="Shape-2" data-name="Shape" d="M27.1,24.133a11.446,11.446,0,0,1-5.813-1.424,8.861,8.861,0,0,1-3.4-3.528L22.007,16.9a5.572,5.572,0,0,0,4.986,2.943,4.3,4.3,0,0,0,2.5-.675,2.053,2.053,0,0,0,.93-1.714c0-1.675-1.387-2.256-3.685-3.219l-1.265-.52a11.863,11.863,0,0,1-4.4-2.731,6.416,6.416,0,0,1-1.667-4.574C19.405,2.634,22.451,0,26.813,0,30.2,0,32.414,1.2,34,3.878L30.065,6.3a3.462,3.462,0,0,0-3.252-2.077A2.17,2.17,0,0,0,24.392,6.3c0,1.489,1,2.066,3.107,2.943l1.265.519a14.231,14.231,0,0,1,4.973,2.952,6.281,6.281,0,0,1,1.748,4.665A6.063,6.063,0,0,1,33.1,22.393,9.785,9.785,0,0,1,27.1,24.133Zm-19.513,0a8.792,8.792,0,0,1-4.865-1.307A7.693,7.693,0,0,1,0,19.7l4.119-2.389C4.874,18.594,5.587,19.8,7.371,19.8c1.925,0,2.71-.883,2.71-3.047V.277H15.14v16.55a7.106,7.106,0,0,1-2.1,5.535A7.885,7.885,0,0,1,7.588,24.132Z" transform="translate(0 0)" fill="#7f66d2"/>
  </g>
  <g id="redux" transform="translate(0 3.033)">
    <path id="Shape-3" data-name="Shape" d="M22.355,29.969a11.629,11.629,0,0,1-5.02-1.246c.541-.4,1.327-1.048,1.751-1.446a9.672,9.672,0,0,0,3.814.844,5.752,5.752,0,0,0,5.409-8.035,10.673,10.673,0,0,0-4.125-5.142A14.469,14.469,0,0,0,15.9,12.333h-.7A2.187,2.187,0,0,1,13.288,13.7H13.21a2.253,2.253,0,0,1-.078-4.5h.078A2.135,2.135,0,0,1,15.117,10.4h.623a15.6,15.6,0,0,1,12.3,5.544,10.419,10.419,0,0,1,2.452,5.288,7.873,7.873,0,0,1-.584,4.474A8.378,8.378,0,0,1,22.355,29.969Zm-14.4-.161a7.953,7.953,0,0,1-6.771-3.254A8.578,8.578,0,0,1,.1,20.82a10.511,10.511,0,0,1,4.431-6.88c.112.615.34,1.493.506,2.049A9.442,9.442,0,0,0,2.392,19.2,6.09,6.09,0,0,0,2.7,25.429,5.408,5.408,0,0,0,6.673,27.8a10.133,10.133,0,0,0,1.314.087,10.42,10.42,0,0,0,5.029-1.332A14.2,14.2,0,0,0,19.4,20.247a2.338,2.338,0,0,1-.623-1.486,2.225,2.225,0,0,1,2.1-2.33h.078A2.227,2.227,0,0,1,23.133,18.6a2.316,2.316,0,0,1-.534,1.572,2.131,2.131,0,0,1-1.411.758A15.56,15.56,0,0,1,16.8,26.555a15.178,15.178,0,0,1-6.513,2.973A9.23,9.23,0,0,1,7.957,29.808Zm2.568-6.026h-.078a2.228,2.228,0,0,1-2.179-2.17,1.851,1.851,0,0,1,.272-1.165,18.886,18.886,0,0,1-2.267-6.523,15.672,15.672,0,0,1,.71-7.457C8.272,2.6,11.494,0,15,0a7.126,7.126,0,0,1,5.273,2.5,12.143,12.143,0,0,1,2.822,7.382c-.216-.074-1.32-.454-1.946-.6a10.63,10.63,0,0,0-1.472-4.469,5.292,5.292,0,0,0-4.429-2.884h-.092a6.686,6.686,0,0,0-4.786,2.25,10.986,10.986,0,0,0-2.3,6.227A15.178,15.178,0,0,0,10.1,19.323a.642.642,0,0,1,.272-.04h.078a2.253,2.253,0,0,1,.078,4.5Z" transform="translate(0 0)" fill="#7f66d2"/>
  </g>
</svg>
