<svg xmlns="http://www.w3.org/2000/svg" width="361.064" height="300" viewBox="0 0 361.064 300">
  <g id="Group_1633" data-name="Group 1633" transform="translate(-134 -679)">
    <path id="Path_3047" data-name="Path 3047" d="M349.516,184.564H281.5a11.548,11.548,0,0,1,0-23.1h68.02a11.548,11.548,0,0,0,0-23.1H263.677c-.121,0-.232-.022-.353-.022H195.3a11.545,11.545,0,0,1-2.164-22.887h79.513a11.548,11.548,0,1,0,0-23.1H265.51a11.716,11.716,0,0,0-2.175-.21H248.4a11.547,11.547,0,0,1,2.175-22.887h90.984a11.548,11.548,0,0,0,0-23.1h-68.02a11.548,11.548,0,1,1,0-23.1h68.02a11.548,11.548,0,0,0,0-23.1H89.78a11.549,11.549,0,0,0,0,23.1H157.8a11.545,11.545,0,0,1,2.164,22.887H80.451a11.548,11.548,0,0,0,0,23.1h7.154a11.717,11.717,0,0,0,2.175.21h14.927a11.547,11.547,0,0,1-2.175,22.887H11.548a11.554,11.554,0,0,0,0,23.108h68.02a11.548,11.548,0,1,1,0,23.1H11.548a11.543,11.543,0,1,0,0,23.085H97.387c.121,0,.232.022.353.022h68.02a11.546,11.546,0,0,1,1.2,23.03H88.422a11.548,11.548,0,0,0,0,23.1h8.115a11.04,11.04,0,0,0,1.214.066h13.966a11.547,11.547,0,0,1-1.214,23.03H19.519a11.548,11.548,0,0,0,0,23.1h68.02a11.548,11.548,0,1,1,0,23.1H19.508a11.548,11.548,0,0,0,0,23.1H271.284a11.549,11.549,0,0,0,0-23.1h-68.02a11.546,11.546,0,0,1-1.2-23.03h78.552a11.548,11.548,0,0,0,0-23.1H272.5a11.044,11.044,0,0,0-1.214-.066H257.318a11.547,11.547,0,0,1,1.214-23.03h90.984a11.548,11.548,0,0,0,0-23.1ZM180.764,69.28a11.545,11.545,0,0,1,2.164,22.887h-10.6a11.545,11.545,0,0,1-2.164-22.887h10.6Zm-.464,161.4a11.546,11.546,0,0,1-1.2-23.03h9.638a11.546,11.546,0,0,1,1.2,23.03Z" transform="translate(134 679.02)" fill="#7a60d1"/>
    <g id="Group_1537" data-name="Group 1537" transform="translate(230 743)">
      <ellipse id="Oval_2" data-name="Oval 2" cx="69.471" cy="6.024" rx="69.471" ry="6.024" transform="translate(15.683 160.22)" fill="#5f48ab"/>
      <g id="Group_274" data-name="Group 274" transform="translate(0 0)">
        <g id="trophy-medal-winner-prize-37ca31b0a43c9f59">
          <g id="g10">
            <g id="g14_Clipped" data-name="g14 Clipped">
              <path id="path18" d="M168.8,168.8H0V0H168.8Z" transform="translate(168.796 168.796) rotate(180)" fill="none"/>
              <g id="g14" transform="translate(3.899 5.822)">
                <g id="g20" transform="translate(0 7.504)">
                  <path id="path22" d="M37.447,66.63H10.795c-4.9,0-8.884.462-8.884-4.442v8.884a8.887,8.887,0,0,0,8.884,8.884H46.331c8.884,0,15.916-9.439,13.326-22.21,0,0-7.956-41.644-8.515-44.233C49.662,6.663,41.7,0,33.191,0H2.279c-4.9,0-.369,8.422-.369,13.326V22.21a8.887,8.887,0,0,1,8.884-8.884H28.563c4.9,0,8.142,4.629,8.884,8.884s7.032,32.573,7.032,32.573C45.962,63.3,42.351,66.63,37.447,66.63" transform="translate(60.2 79.956) rotate(180)" fill="#ffac33"/>
                </g>
                <g id="g24" transform="translate(98.196 7.504)">
                  <path id="path26" d="M22.755,66.63H49.407c4.9,0,12.5.462,12.5-4.442v8.884c0,4.9-7.591,8.884-12.5,8.884H13.871c-8.884,0-15.92-9.439-13.326-22.21,0,0,7.254-41.839,7.867-44.42C9.984,6.663,17.482,0,26.18,0H57.918C62.826,0,61.9,8.422,61.9,13.326V22.21c0-4.9-7.591-8.884-12.5-8.884H31.639c-4.9,0-8.147,4.629-8.884,8.884s-7.036,32.573-7.036,32.573C14.244,63.3,17.851,66.63,22.755,66.63" transform="translate(61.971 79.956) rotate(180)" fill="#ffac33"/>
                </g>
                <g id="g28" transform="translate(52.555 82.607)">
                  <path id="path30" d="M14.619,44.42c0,30.907,12.033,0,12.033,0s13.326,30.907,13.326,0S54.6,0,54.6,0H0S14.619,13.513,14.619,44.42" transform="translate(54.597 58.157) rotate(180)" fill="#ffac33"/>
                </g>
                <g id="g32" transform="translate(31.637 0)">
                  <path id="path34" d="M0,80.809C0,50.714,30.072,0,48.862,0S97.724,50.714,97.724,80.809c0,23.076-4.442,28.069-13.326,28.069-6.1,0-26.763.12-35.536.12-6.179,0-26.27.009-31.094.009C4.811,109.006,0,105.964,0,80.809" transform="translate(97.724 109.006) rotate(180)" fill="#ffcc4d"/>
                </g>
                <g id="g36" transform="translate(40.51 131.879)">
                  <path id="path38" d="M.012,8.884C.012,3.98-.45,0,4.454,0H75.526c4.9,0,4.442,3.98,4.442,8.884v4.442c0,4.9-4.629,8.884-9.253,8.884H8.9A9.069,9.069,0,0,1,.012,13.326Z" transform="translate(79.979 22.21) rotate(180)" fill="#e39522"/>
                </g>
                <g id="g40" transform="translate(31.637 145.205)">
                  <path id="path42" d="M0,6.108C0,2.732-.186,0,6.108,0H91.617c5.739,0,6.108,2.732,6.108,6.108v1.11a6.107,6.107,0,0,1-6.108,6.108H6.108A6.1,6.1,0,0,1,0,7.218Z" transform="translate(97.724 13.326) rotate(180)" fill="#c97f11"/>
                </g>
              </g>
              <path id="path18-2" data-name="path18" d="M168.8,168.8H0V0H168.8Z" transform="translate(168.796 168.796) rotate(180)" fill="none"/>
            </g>
          </g>
        </g>
        <g id="Group_28" data-name="Group 28" transform="translate(66.483 28.557)">
          <path id="Fill_22" data-name="Fill 22" d="M11.631,6.943c-1.087-.665-5.675-3.459-5.675-3.459S1.371.686.283.024A.16.16,0,0,0,.04.153C.028.407.01.778,0,.985a.49.49,0,0,0,.075.284l1.3,2.07a.914.914,0,0,1,.111.717L.568,7.591A.369.369,0,0,0,.7,7.973a17.633,17.633,0,0,0,1.768,1.22,17.585,17.585,0,0,0,1.894,1.013.37.37,0,0,0,.4-.06L7.487,7.714a.917.917,0,0,1,.689-.229l2.439.211a.493.493,0,0,0,.288-.064l.723-.414a.159.159,0,0,0,0-.275" transform="translate(5.441 21.301)" fill="#e8951c"/>
          <path id="Fill_24" data-name="Fill 24" d="M9.369,2.573a.9.9,0,0,0-.489-.661c-.727-.362-1.305-.708-1.463-.8S6.687.656,6.032.176A.9.9,0,0,0,5.22.043L5.062.094A3.415,3.415,0,0,0,2.814,2.435L.014,12.57a.349.349,0,0,0,.573.349L8.338,5.8A3.408,3.408,0,0,0,9.4,2.737Z" transform="translate(0 30.184)" fill="#e8951c"/>
          <path id="Fill_26" data-name="Fill 26" d="M34.161,1.895a.634.634,0,0,0-.015-.909h0a1.2,1.2,0,0,0-.566-.243L28.764.014A1.218,1.218,0,0,0,27.6.494L24.974,4.051a1.211,1.211,0,0,0,.2,1.655.092.092,0,0,1,.02.118.094.094,0,0,1-.093.043l-1.325-.2-1.825-.276a1.385,1.385,0,0,0-1.321.546l-7.681,10.4a.326.326,0,0,1-.431.085L5.129,11.959a1.019,1.019,0,0,0-1.411.368,1.047,1.047,0,0,0,.4,1.4l.191.115a.272.272,0,0,1,.129.274L4.212,15.6a.2.2,0,0,1-.3.143L2.826,15.1a1.854,1.854,0,0,0-2.2,2.965c.02.018.212.165.261.2l0,0h0l5.523,3.376a5.074,5.074,0,0,0,5.963-.205,1.952,1.952,0,0,1,2.535-.266,1.362,1.362,0,0,0,1.4,0l1.375-.813A1.283,1.283,0,0,1,19,20.354l4.188,2.526a.373.373,0,0,0,.492-.1L33.912,8.947c.835-1.112.217-1.653-.292-1.785-.033-.007-.065-.017-.1-.022l-2.455-.371a.3.3,0,0,1-.106-.041.289.289,0,0,1-.1-.4c.832-1.122,3.3-4.435,3.3-4.435" transform="translate(1.894 0)" fill="#e8951c"/>
        </g>
      </g>
    </g>
  </g>
</svg>
