<?xml version="1.0" encoding="UTF-8"?>
<svg width="18px" height="15px" viewBox="0 0 18 15" version="1.1" xmlns="http://www.w3.org/2000/svg" xmlns:xlink="http://www.w3.org/1999/xlink">
    <!-- Generator: Sketch 50.2 (55047) - http://www.bohemiancoding.com/sketch -->
    <title>twitter - FontAwesome</title>
    <desc>Created with Sketch.</desc>
    <defs></defs>
    <g id="Home" stroke="none" stroke-width="1" fill="none" fill-rule="evenodd">
        <g transform="translate(-1167.000000, -32.000000)" fill="#FFFFFF" id="Group-3">
            <g transform="translate(1097.000000, 30.000000)">
                <path d="M88.0803787,4.41069928 C87.5893067,5.12498584 86.9754667,5.76114732 86.2723408,6.27454079 C86.2835016,6.43079097 86.2835016,6.58704116 86.2835016,6.74329134 C86.2835016,11.508922 82.6562651,17 76.0267929,17 C73.9843797,17 72.0870561,16.4084814 70.491072,15.3816945 C70.7812509,15.4151767 71.0602691,15.4263374 71.3616088,15.4263374 C73.0468786,15.4263374 74.5982198,14.8571403 75.8370605,13.886157 C74.2522372,13.8526748 72.9241106,12.8147272 72.4665208,11.386154 C72.6897353,11.4196362 72.9129499,11.4419577 73.1473252,11.4419577 C73.4709863,11.4419577 73.7946474,11.3973147 74.095987,11.3191897 C72.4441993,10.9843678 71.2053586,9.53347324 71.2053586,7.78123901 C71.2053586,7.77007828 71.2053586,7.74775683 71.2053586,7.7365961 C71.6852699,8.00445356 72.2433062,8.17186448 72.8348248,8.19418593 C71.8638415,7.54686373 71.22768,6.4419517 71.22768,5.19195021 C71.22768,4.52230655 71.4062517,3.90846654 71.718752,3.37275161 C73.4933077,5.56025422 76.1607216,6.98882735 79.1517966,7.14507754 C79.095993,6.87722008 79.0625108,6.59820189 79.0625108,6.3191837 C79.0625108,4.33257418 80.6696556,2.71426868 82.6674258,2.71426868 C83.7053735,2.71426868 84.6428746,3.14953706 85.3013575,3.8526629 C86.1160906,3.69641271 86.8973416,3.39507307 87.5893067,2.98212615 C87.3214492,3.81918072 86.7522521,4.52230655 86.0044834,4.96873566 C86.7299307,4.89061056 87.4330565,4.68971747 88.0803787,4.41069928 Z" id="twitter---FontAwesome"></path>
            </g>
        </g>
    </g>
</svg>