<svg id="Group" xmlns="http://www.w3.org/2000/svg" width="145.996" height="160.277" viewBox="0 0 145.996 160.277">
  <path id="Shape" d="M69.225,93.334a39.59,39.59,0,0,1-21.86-7.307c-2.817-2.057-5.345-5.568-7.513-10.434a61.6,61.6,0,0,1-3.4-10.073,97.793,97.793,0,0,1-13.214-8.815c-4.716-3.892-7.107-7.269-7.107-10.039-.344-1.344-4.634-5.908-7.2-8.635l-.016-.018L8.9,37.988C2.952,31.657-1.344,27.082.387,23.054.986,21.66,2.478,20,6.18,20c6.458,0,14.575,4.164,21.1,7.511l.02.01.087.045.005,0,.005,0,.006,0c1.825.936,4.1,2.1,5.736,2.813,1.408-5.826,5.824-13.739,10.154-16.233,1.257-2.885,4.369-6.374,8.325-9.332a31.49,31.49,0,0,1,5.731-3.455A13.179,13.179,0,0,1,62.59,0a11.635,11.635,0,0,1,6.862,1.986A11.679,11.679,0,0,1,76.32,0a12.637,12.637,0,0,1,5.119,1.363,30.653,30.653,0,0,1,5.593,3.451c3.856,2.952,6.895,6.436,8.129,9.319,2.093,1.178,4.393,3.68,6.478,7.045a35.729,35.729,0,0,1,4.1,9.221c1.591-.687,3.861-1.841,5.873-2.88l.022-.012c6.522-3.345,14.64-7.509,21.1-7.509,3.714,0,5.2,1.661,5.793,3.054C140.256,27.089,135.954,31.666,130,38c-2.571,2.735-6.873,7.314-7.232,8.851.005,2.694-2.382,6.018-7.1,9.881a99.77,99.77,0,0,1-13.217,8.786c-1.131,4.594-4.46,15.791-10.911,20.507A40.982,40.982,0,0,1,69.225,93.334ZM78.318,46a3.334,3.334,0,0,0,0,6.667h6.637a3.334,3.334,0,0,0,0-6.667Zm-26,0a3.334,3.334,0,0,0,0,6.667h6.637a3.334,3.334,0,0,0,0-6.667Zm29.888-6.328h0a9.054,9.054,0,0,1,3.42.769c3,1.226,6.456,3.832,10.571,7.966a3.321,3.321,0,0,0,4.7,0,3.347,3.347,0,0,0-.006-4.713c-4.758-4.779-8.933-7.862-12.762-9.427A15.757,15.757,0,0,0,82.163,33a12.672,12.672,0,0,0-9.193,4.027,3.348,3.348,0,0,0,0,4.713,3.31,3.31,0,0,0,4.693,0A6.257,6.257,0,0,1,82.206,39.672ZM55.7,33a15.739,15.739,0,0,0-5.964,1.266c-3.829,1.564-8,4.648-12.762,9.427a3.349,3.349,0,0,0,0,4.713,3.321,3.321,0,0,0,4.7,0c4.111-4.135,7.569-6.741,10.571-7.966a8.99,8.99,0,0,1,3.418-.771A6.26,6.26,0,0,1,60.2,41.74a3.308,3.308,0,0,0,4.692,0,3.347,3.347,0,0,0-.006-4.713A12.67,12.67,0,0,0,55.7,33ZM69.318,3A3.33,3.33,0,0,0,66,6.333V33a3.318,3.318,0,1,0,6.637,0V6.333A3.33,3.33,0,0,0,69.318,3ZM89.066,13a3.31,3.31,0,0,0-3.158,2.43L82.131,28.763a3.329,3.329,0,0,0,2.276,4.12,3.242,3.242,0,0,0,.909.127,3.34,3.34,0,0,0,3.192-2.42l3.776-13.334A3.341,3.341,0,0,0,90,13.136,3.3,3.3,0,0,0,89.066,13Zm-39.73,0a3.1,3.1,0,0,0-.819.11,3.328,3.328,0,0,0-2.416,4.04l3.317,13.334a3.306,3.306,0,0,0,3.219,2.526,3.249,3.249,0,0,0,.8-.1,3.346,3.346,0,0,0,2.416-4.04L52.538,15.536A3.351,3.351,0,0,0,49.335,13Z" transform="translate(4)" fill="#fff"/>
  <g id="Group-2" data-name="Group" transform="translate(0 102)">
    <path id="Shape-2" data-name="Shape" d="M20.337,23.237a3.32,3.32,0,1,1,5.78-3.267C30,26.9,37.512,48.07,41.042,58.27H66.366V44.324a9.931,9.931,0,0,1-5.13-4.093C52.516,26.184,39.642,8.65,34.061,4.817a3.4,3.4,0,0,0-.956-.453A31.4,31.4,0,0,1,24.544.537,3.31,3.31,0,0,0,20.662.73L14.517,5.664A3.307,3.307,0,0,0,13.4,7.35L.129,54.017A3.334,3.334,0,0,0,3.321,58.27H34.014C30.311,47.657,23.688,29.217,20.337,23.237Z" fill="#fff"/>
    <path id="Shape-3" data-name="Shape" d="M72.867,54.031,59.595,7.364A3.307,3.307,0,0,0,58.48,5.677L52.328.731A3.309,3.309,0,0,0,48.445.537a31.43,31.43,0,0,1-8.806,3.907,3.888,3.888,0,0,0-.71.293C32.319,8.431,14.447,28.677,4.446,41.2A9.205,9.205,0,0,1,0,44.251V58.277H25.318c3.531-10.207,11.043-31.367,14.925-38.3A3.3,3.3,0,0,1,44.762,18.7a3.336,3.336,0,0,1,1.261,4.54c-3.345,5.98-9.968,24.42-13.671,35.033h37.33a3.325,3.325,0,0,0,3.185-4.247Z" transform="translate(73)" fill="#fff"/>
  </g>
  <path id="Shape-4" data-name="Shape" d="M93.707,1.109a3.311,3.311,0,0,0-5.276,1.407c-2,5.607-5.6,13.18-11.388,17.407A46.809,46.809,0,0,1,50.817,28.5a46.027,46.027,0,0,1-25.769-8.58c-5.867-4.287-9.49-11.993-11.494-17.7A3.316,3.316,0,0,0,8.311.763C2.092,5.916-.921,12.2.247,17.576c.763,3.52,3.677,8.247,13.213,10.813,6.032,1.62,21.893,23.513,31.224,38.547a3.278,3.278,0,0,0,2.621,1.56,1.793,1.793,0,0,0,.192.007,3.3,3.3,0,0,0,2.588-1.247C61.342,53.163,81.642,30.149,88.173,28.389c9.483-2.547,12.4-7.233,13.193-10.72C102.547,12.423,99.687,6.236,93.707,1.109Z" transform="translate(22 71)" fill="#fff"/>
</svg>
