<?xml version="1.0" encoding="UTF-8"?>
<svg width="20px" height="15px" viewBox="0 0 20 15" version="1.1" xmlns="http://www.w3.org/2000/svg" xmlns:xlink="http://www.w3.org/1999/xlink">
    <!-- Generator: Sketch 50.2 (55047) - http://www.bohemiancoding.com/sketch -->
    <title>youtube-play - FontAwesome</title>
    <desc>Created with Sketch.</desc>
    <defs></defs>
    <g id="Home" stroke="none" stroke-width="1" fill="none" fill-rule="evenodd">
        <g transform="translate(-1206.000000, -32.000000)" fill="#FFFFFF" id="Group-3">
            <g transform="translate(1097.000000, 30.000000)">
                <path d="M123.285731,9.85713434 C123.285731,9.61159834 123.162963,9.37722306 122.950909,9.25445505 L117.236617,5.68302222 C117.013402,5.53793276 116.734384,5.53793276 116.51117,5.66070077 C116.287955,5.78346877 116.142866,6.02900478 116.142866,6.28570151 L116.142866,13.4285672 C116.142866,13.6852639 116.287955,13.9307999 116.51117,14.0535679 C116.622777,14.1093716 116.734384,14.1428537 116.857152,14.1428537 C116.991081,14.1428537 117.12501,14.1093716 117.236617,14.0312465 L122.950909,10.4598136 C123.162963,10.3370456 123.285731,10.1026703 123.285731,9.85713434 Z M129.000024,9.85713434 C129.000024,11.4531184 129.000024,13.149549 128.642881,14.7008901 C128.408505,15.7946414 127.537969,16.5982138 126.48886,16.7209818 C124.011179,17 121.500015,17 119.000012,17 C116.500009,17 113.988845,17 111.511164,16.7209818 C110.462055,16.5982138 109.591519,15.7946414 109.345983,14.7008901 C109,13.149549 109,11.4531184 109,9.85713434 C109,8.2611503 109,6.5647197 109.357143,5.01337857 C109.602679,3.91962726 110.462055,3.11605488 111.511164,2.99328687 C113.988845,2.71426868 116.500009,2.71426868 119.000012,2.71426868 C121.500015,2.71426868 124.011179,2.71426868 126.48886,2.99328687 C127.537969,3.11605488 128.408505,3.91962726 128.654041,5.01337857 C129.000024,6.5647197 129.000024,8.2611503 129.000024,9.85713434 Z" id="youtube-play---FontAwesome"></path>
            </g>
        </g>
    </g>
</svg>